<svg width="142" height="138" viewBox="0 0 142 138" fill="none" xmlns="http://www.w3.org/2000/svg">
<rect width="142" height="138" fill="white"/>
<path d="M76.2029 48C82.6712 48 87.8178 49.4452 86.7937 55.9109V82.0596C86.7937 82.8821 86.7937 84.0414 85.7866 84.2526C85.1417 84.8342 87.7293 85.5751 86.7937 85.5751C86.4025 86.2266 82.4144 86.1759 81.6735 85.0934C81.6735 85.0934 76.7612 79.2979 69.8969 79.1222C63.0325 78.9464 58.3104 84.6844 58.3104 84.6844C56.632 86.5007 54.8913 85.155 53.8117 84.0414L53.6046 83.8079L53.4068 83.5208C53.1487 83.0764 53.0095 82.5836 53 82.0596V56.2392C53 50.7857 57.0323 48 63.5908 48H76.2029ZM76.2029 50.69H63.5908C58.5321 50.69 55.9824 52.4515 55.9824 56.2392L55.9822 82.0372C55.9837 82.1193 56.0065 82.1999 55.9817 82.1688L56.0608 82.2843C56.1972 82.4519 57.821 84.1348 58 84.0513C62.3936 78.6068 64.0897 75.3523 70.5 75.7692C76.142 75.6352 78.9809 76.7362 83.3552 81.7213C83.4448 81.7627 83.8113 82.0596 83.3552 82.471C83.4762 82.471 83.5922 82.4276 83.6777 82.3505C83.7633 82.2733 83.8113 82.1687 83.8113 82.0596V55.9109C83.8113 52.381 81.1967 50.69 76.2029 50.69Z" fill="url(#paint0_linear)"/>
<path d="M76.2029 48C82.6712 48 87.8178 49.4452 86.7937 55.9109V82.0596C86.7937 82.8821 86.7937 84.0414 85.7866 84.2526C85.1417 84.8342 87.7293 85.5751 86.7937 85.5751C86.4025 86.2266 82.4144 86.1759 81.6735 85.0934C81.6735 85.0934 76.7612 79.2979 69.8969 79.1222C63.0325 78.9464 58.3104 84.6844 58.3104 84.6844C56.632 86.5007 54.8913 85.155 53.8117 84.0414L53.6046 83.8079L53.4068 83.5208C53.1487 83.0764 53.0095 82.5836 53 82.0596V56.2392C53 50.7857 57.0323 48 63.5908 48H76.2029ZM76.2029 50.69H63.5908C58.5321 50.69 55.9824 52.4515 55.9824 56.2392L55.9822 82.0372C55.9837 82.1193 56.0065 82.1999 55.9817 82.1688L56.0608 82.2843C56.1972 82.4519 57.821 84.1348 58 84.0513C62.3936 78.6068 64.0897 75.3523 70.5 75.7692C76.142 75.6352 78.9809 76.7362 83.3552 81.7213C83.4448 81.7627 83.8113 82.0596 83.3552 82.471C83.4762 82.471 83.5922 82.4276 83.6777 82.3505C83.7633 82.2733 83.8113 82.1687 83.8113 82.0596V55.9109C83.8113 52.381 81.1967 50.69 76.2029 50.69Z" fill="url(#paint1_linear)"/>
<path d="M78.3445 46C84.8523 46 89 48.8689 89 54.5118V82.6467C89 83.5318 88.6355 84.3805 87.9867 85.0063C87.338 85.6321 86.5565 86.0945 85.5167 85.9835C84.899 85.9176 84.3636 85 84.3636 85C84.3636 85 80.2424 77.3398 71.9447 77.5C63.6471 77.6602 61.1094 84.1326 60.0469 84.9839C58.9844 85.8353 56.9028 85.9773 55.8167 84.7791L55.6083 84.5279L55.4093 84.219C55.1496 83.7408 55.0095 83.2106 55 82.6467V54.865C55 48.9973 59.0569 46 65.6555 46H78.3445ZM78.3445 48.8943H65.6555C60.5659 48.8943 58.0006 50.7896 58.0006 54.865L58.0004 82.6226C58.0019 82.711 58.0248 82.7977 57.9999 82.7643L58.0795 82.8886C58.2167 83.0689 57.2484 83.5899 57.4286 83.5C61.1014 75.4503 68.4895 74 71.9447 74C75.4 74 84.4458 75.7571 86.5714 82.9597C86.6616 83.0043 85.463 83.088 85.5405 83.0894C85.6622 83.0894 85.7789 83.0427 85.865 82.9597C85.951 82.8767 85.9994 82.7641 85.9994 82.6467V54.5118C85.9994 50.7138 83.3688 48.8943 78.3445 48.8943Z" fill="#6C757D"/>
<path d="M73.94 62.54C73.34 62.4 72.78 62.38 72.22 62.34C71.4 62.3 70.7 62.26 70.18 61.9C69.62 61.52 69.18 60.78 69.38 60.08C69.6 59.24 70.44 58.58 71.38 58.44C72.6 58.26 73.9 58.6 74.8 59.32C75.32 59.72 76.08 59.62 76.48 59.12C76.88 58.6 76.78 57.84 76.28 57.44C74.86 56.34 72.9 55.82 71.06 56.08C69.16 56.36 67.56 57.7 67.08 59.44C66.64 61.04 67.36 62.86 68.82 63.86C69.9 64.6 71.06 64.66 72.1 64.72C72.56 64.74 73.02 64.76 73.42 64.86C74.4 65.08 75.1 65.92 75.04 66.82C74.98 67.84 73.9 68.44 72.92 68.58C71.44 68.8 69.86 68.24 68.98 67.22C68.56 66.72 67.82 66.66 67.32 67.08C66.82 67.52 66.76 68.26 67.18 68.76C68.38 70.18 70.32 71 72.28 71C72.6 71 72.94 70.98 73.26 70.94C75.16 70.66 77.28 69.3 77.42 66.96C77.54 64.92 76.04 63 73.94 62.54Z" fill="#6C757D"/>
<rect x="60" y="52" width="3" height="24" rx="1.5" fill="url(#paint2_linear)" fill-opacity="0.68"/>
<defs>
<linearGradient id="paint0_linear" x1="70" y1="48" x2="70" y2="86" gradientUnits="userSpaceOnUse">
<stop stop-color="#17A2B8"/>
<stop offset="1" stop-color="#19E2FE" stop-opacity="0.68"/>
</linearGradient>
<linearGradient id="paint1_linear" x1="70" y1="48" x2="70" y2="86" gradientUnits="userSpaceOnUse">
<stop stop-color="#45E9FF" stop-opacity="0.68"/>
<stop offset="0.9999" stop-color="#00B0CC"/>
<stop offset="1" stop-color="#45E9FF" stop-opacity="0.68"/>
</linearGradient>
<linearGradient id="paint2_linear" x1="61.5" y1="52" x2="61.5" y2="76" gradientUnits="userSpaceOnUse">
<stop stop-color="#19E2FE"/>
<stop offset="1" stop-color="#05B3CB"/>
</linearGradient>
</defs>
</svg>
