<svg width="80" height="60" viewBox="0 0 139 116" fill="none" xmlns="http://www.w3.org/2000/svg">
<path d="M125.751 109.804C125.751 106.666 128.295 104.108 131.447 104.108C134.599 104.108 137.143 106.652 137.143 109.804C137.143 112.942 134.598 115.5 131.447 115.5C128.294 115.5 125.751 112.957 125.751 109.804Z" fill="#2449CC" stroke="#2449CC"/>
<path d="M92.5429 109.804C92.5429 106.666 95.0872 104.108 98.2387 104.108C101.376 104.108 103.935 106.653 103.935 109.804C103.935 112.942 101.39 115.5 98.2387 115.5C95.1009 115.5 92.5429 112.956 92.5429 109.804Z" fill="#2449CC" stroke="#2449CC"/>
<path d="M59.3339 109.804C59.3339 106.666 61.8782 104.108 65.0297 104.108C68.1821 104.108 70.7256 106.652 70.7256 109.804C70.7256 112.942 68.1813 115.5 65.0297 115.5C61.8774 115.5 59.3339 112.957 59.3339 109.804Z" fill="#2449CC" stroke="#2449CC"/>
<path d="M26.1405 109.804C26.1405 106.666 28.6848 104.108 31.8364 104.108C34.9887 104.108 37.5322 106.652 37.5322 109.804C37.5322 112.942 34.9879 115.5 31.8364 115.5C28.684 115.5 26.1405 112.957 26.1405 109.804Z" fill="#0D173B" stroke="#0D173B"/>
<path d="M-7.06754 109.804C-7.06754 106.666 -4.52321 104.108 -1.37168 104.108C1.76609 104.108 4.32422 106.653 4.32422 109.804C4.32422 112.942 1.77985 115.5 -1.37168 115.5C-4.52402 115.5 -7.06754 112.957 -7.06754 109.804Z" fill="#2449CC" stroke="#2449CC"/>
<path d="M131.447 89.8556C128.301 89.8556 125.751 87.3059 125.751 84.1597C125.751 81.0135 128.301 78.4639 131.447 78.4639C134.593 78.4639 137.143 81.0135 137.143 84.1597C137.143 87.3059 134.593 89.8556 131.447 89.8556Z" fill="#2449CC" stroke="#2449CC"/>
<path d="M92.0429 84.1597C92.0429 80.7466 94.8102 77.9639 98.2387 77.9639C101.652 77.9639 104.435 80.7312 104.435 84.1597C104.435 87.5728 101.667 90.3556 98.2387 90.3556C94.8256 90.3556 92.0429 87.5728 92.0429 84.1597Z" stroke="#333333" stroke-miterlimit="10"/>
<path d="M65.0297 89.8556C61.8835 89.8556 59.3339 87.3059 59.3339 84.1597C59.3339 81.0135 61.8835 78.4639 65.0297 78.4639C68.1759 78.4639 70.7256 81.0135 70.7256 84.1597C70.7256 87.3059 68.1759 89.8556 65.0297 89.8556Z" fill="#2449CC" stroke="#2449CC"/>
<path d="M31.8217 89.8556C28.6755 89.8556 26.1259 87.3059 26.1259 84.1597C26.1259 81.0135 28.6755 78.4639 31.8217 78.4639C34.9679 78.4639 37.5176 81.0135 37.5176 84.1597C37.5176 87.3059 34.9679 89.8556 31.8217 89.8556Z" fill="#2449CC" stroke="#2449CC"/>
<path d="M-7.06754 84.1597C-7.06754 81.022 -4.52321 78.4639 -1.37168 78.4639C1.76609 78.4639 4.32422 81.0082 4.32422 84.1597C4.32422 87.2975 1.77985 89.8556 -1.37168 89.8556C-4.52321 89.8556 -7.06754 87.2975 -7.06754 84.1597Z" fill="#2449CC" stroke="#2449CC"/>
<path d="M131.447 64.1959C128.301 64.1959 125.751 61.6462 125.751 58.5001C125.751 55.3539 128.301 52.8042 131.447 52.8042C134.593 52.8042 137.143 55.3539 137.143 58.5001C137.143 61.6462 134.593 64.1959 131.447 64.1959Z" fill="#2449CC" stroke="#2449CC"/>
<path d="M92.5429 58.5001C92.5429 55.3623 95.0872 52.8042 98.2387 52.8042C101.376 52.8042 103.935 55.3485 103.935 58.5001C103.935 61.6524 101.391 64.1959 98.2387 64.1959C95.1009 64.1959 92.5429 61.6516 92.5429 58.5001Z" fill="#2449CC" stroke="#2449CC"/>
<path d="M65.0297 64.1959C61.8835 64.1959 59.3339 61.6462 59.3339 58.5001C59.3339 55.3539 61.8835 52.8042 65.0297 52.8042C68.1759 52.8042 70.7256 55.3539 70.7256 58.5001C70.7256 61.6462 68.1759 64.1959 65.0297 64.1959Z" fill="#2449CC" stroke="#2449CC"/>
<path d="M31.8217 64.1959C28.6755 64.1959 26.1259 61.6462 26.1259 58.5001C26.1259 55.3539 28.6755 52.8042 31.8217 52.8042C34.9679 52.8042 37.5176 55.3539 37.5176 58.5001C37.5176 61.6462 34.9679 64.1959 31.8217 64.1959Z" fill="#2449CC" stroke="#2449CC"/>
<path d="M-7.06754 58.5001C-7.06754 55.3623 -4.52321 52.8042 -1.37168 52.8042C1.76609 52.8042 4.32422 55.3485 4.32422 58.5001C4.32422 61.6524 1.78066 64.1959 -1.37168 64.1959C-4.52402 64.1959 -7.06754 61.6524 -7.06754 58.5001Z" fill="#0D173B" stroke="#0D173B"/>
<path d="M131.447 38.5358C128.301 38.5358 125.751 35.9861 125.751 32.8399C125.751 29.6937 128.301 27.144 131.447 27.144C134.593 27.144 137.143 29.6937 137.143 32.8399C137.143 35.9861 134.593 38.5358 131.447 38.5358Z" fill="#2449CC" stroke="#2449CC"/>
<path d="M92.5429 32.8399C92.5429 29.7021 95.0872 27.144 98.2387 27.144C101.376 27.144 103.935 29.6884 103.935 32.8399C103.935 35.9922 101.391 38.5358 98.2387 38.5358C95.1009 38.5358 92.5429 35.9914 92.5429 32.8399Z" fill="#0D173B" stroke="#0D173B"/>
<path d="M65.0297 38.5358C61.8835 38.5358 59.3339 35.9861 59.3339 32.8399C59.3339 29.6937 61.8835 27.144 65.0297 27.144C68.1759 27.144 70.7256 29.6937 70.7256 32.8399C70.7256 35.9861 68.1759 38.5358 65.0297 38.5358Z" fill="#2449CC" stroke="#2449CC"/>
<path d="M25.6259 32.8399C25.6259 36.2622 28.3994 39.0358 31.8217 39.0358C35.2441 39.0358 38.0176 36.2622 38.0176 32.8399C38.0176 29.4176 35.2441 26.644 31.8217 26.644C28.3994 26.644 25.6259 29.4176 25.6259 32.8399Z" stroke="#333333" stroke-miterlimit="10"/>
<path d="M-7.06754 32.8399C-7.06754 29.7021 -4.52321 27.144 -1.37168 27.144C1.76609 27.144 4.32422 29.6884 4.32422 32.8399C4.32422 35.9922 1.78066 38.5358 -1.37168 38.5358C-4.52402 38.5358 -7.06754 35.9922 -7.06754 32.8399Z" fill="#2449CC" stroke="#2449CC"/>
<path d="M125.251 7.19585C125.251 10.6182 128.024 13.3917 131.447 13.3917C134.869 13.3917 137.643 10.6182 137.643 7.19585C137.643 3.77353 134.869 1 131.447 1C128.024 1 125.251 3.77353 125.251 7.19585Z" stroke="#333333" stroke-miterlimit="10"/>
<path d="M92.5429 7.19585C92.5429 4.05809 95.0872 1.5 98.2387 1.5C101.376 1.5 103.935 4.04433 103.935 7.19585C103.935 10.3336 101.39 12.8917 98.2387 12.8917C95.1018 12.8917 92.5429 10.3328 92.5429 7.19585Z" fill="#2449CC" stroke="#2449CC"/>
<path d="M65.0297 12.8917C61.8835 12.8917 59.3339 10.342 59.3339 7.19585C59.3339 4.04967 61.8835 1.5 65.0297 1.5C68.1759 1.5 70.7256 4.04967 70.7256 7.19585C70.7256 10.342 68.1759 12.8917 65.0297 12.8917Z" fill="#2449CC" stroke="#2449CC"/>
<path d="M31.8217 12.8917C28.6755 12.8917 26.1259 10.342 26.1259 7.19585C26.1259 4.04967 28.6755 1.5 31.8217 1.5C34.9679 1.5 37.5176 4.04967 37.5176 7.19585C37.5176 10.342 34.9679 12.8917 31.8217 12.8917Z" fill="#2449CC" stroke="#2449CC"/>
<path d="M-7.06754 7.19585C-7.06754 4.05809 -4.52321 1.5 -1.37168 1.5C1.76609 1.5 4.32422 4.04433 4.32422 7.19585C4.32422 10.3336 1.77985 12.8917 -1.37168 12.8917C-4.52321 12.8917 -7.06754 10.3336 -7.06754 7.19585Z" fill="#2449CC" stroke="#2449CC"/>
</svg>
