<svg width="335" height="373" viewBox="0 0 335 373" fill="none" xmlns="http://www.w3.org/2000/svg">
<path d="M215.901 18.6087C276.075 18.6087 323.952 32.0553 314.425 92.2145V335.511C314.425 343.164 314.425 353.95 305.057 355.916C299.057 361.327 323.129 368.221 314.425 368.221C310.786 374.282 273.686 373.811 266.793 363.739C266.793 363.739 221.095 309.815 157.238 308.18C93.3793 306.545 49.4505 359.933 49.4505 359.933C33.8366 376.833 17.6432 364.312 7.59991 353.95L5.6733 351.778L3.83321 349.107C1.43215 344.972 0.137205 340.387 0.0488281 335.511V95.2691C0.0488281 44.5278 37.5606 18.6087 98.5731 18.6087H215.901ZM215.901 43.6374H98.5731C51.5129 43.6374 27.7935 60.027 27.7935 95.2691L27.7917 335.303C27.8056 336.067 28.0178 336.816 27.787 336.527L28.5229 337.602C29.7918 339.161 44.8977 354.819 46.5629 354.043C87.4358 303.385 103.214 273.104 162.848 276.983C215.335 275.736 241.744 285.98 282.438 332.363C283.271 332.749 286.681 335.511 282.438 339.339C283.563 339.339 284.642 338.935 285.438 338.218C286.234 337.499 286.681 336.526 286.681 335.511V92.2145C286.681 59.3711 262.358 43.6374 215.901 43.6374Z" fill="url(#paint0_linear_0_1)"/>
<path d="M215.901 18.6087C276.075 18.6087 323.952 32.0553 314.425 92.2145V335.511C314.425 343.164 314.425 353.95 305.057 355.916C299.057 361.327 323.129 368.221 314.425 368.221C310.786 374.282 273.686 373.811 266.793 363.739C266.793 363.739 221.095 309.815 157.238 308.18C93.3793 306.545 49.4505 359.933 49.4505 359.933C33.8366 376.833 17.6432 364.312 7.59991 353.95L5.6733 351.778L3.83321 349.107C1.43215 344.972 0.137205 340.387 0.0488281 335.511V95.2691C0.0488281 44.5278 37.5606 18.6087 98.5731 18.6087H215.901ZM215.901 43.6374H98.5731C51.5129 43.6374 27.7935 60.027 27.7935 95.2691L27.7917 335.303C27.8056 336.067 28.0178 336.816 27.787 336.527L28.5229 337.602C29.7918 339.161 44.8977 354.819 46.5629 354.043C87.4358 303.385 103.214 273.104 162.848 276.983C215.335 275.736 241.744 285.98 282.438 332.363C283.271 332.749 286.681 335.511 282.438 339.339C283.563 339.339 284.642 338.935 285.438 338.218C286.234 337.499 286.681 336.526 286.681 335.511V92.2145C286.681 59.3711 262.358 43.6374 215.901 43.6374Z" fill="url(#paint1_linear_0_1)"/>
<path d="M235.824 0C296.365 0 334.95 26.6932 334.95 79.1967V340.974C334.95 349.209 331.559 357.106 325.524 362.928C319.489 368.751 312.219 373.053 302.546 372.02C296.799 371.407 291.819 362.87 291.819 362.87C291.819 362.87 253.48 291.596 176.288 293.087C99.0967 294.578 75.4889 354.799 65.6047 362.72C55.7205 370.642 36.3557 371.963 26.2519 360.814L24.3132 358.477L22.462 355.603C20.046 351.154 18.7427 346.22 18.6543 340.974V82.4831C18.6543 27.8879 56.3949 0 117.78 0H235.824ZM235.824 26.9296H117.78C70.4329 26.9296 46.5683 44.5641 46.5683 82.4831L46.5665 340.749C46.5804 341.572 46.7935 342.379 46.5618 342.068L47.3023 343.224C48.5787 344.902 39.5708 349.75 41.2471 348.913C75.4145 274.016 144.145 260.522 176.288 260.522C208.432 260.522 292.583 276.87 312.357 343.886C313.196 344.301 302.046 345.08 302.767 345.093C303.899 345.093 304.985 344.658 305.786 343.886C306.586 343.114 307.036 342.066 307.036 340.974V79.1967C307.036 43.8588 282.564 26.9296 235.824 26.9296Z" fill="#6C757D"/>
<path d="M93.0784 69.7826C93.0784 62.0746 86.8309 55.826 79.1241 55.826C71.4174 55.826 65.1699 62.0746 65.1699 69.7826V265.174C65.1699 272.882 71.4174 279.13 79.1241 279.13C86.8309 279.13 93.0784 272.882 93.0784 265.174V69.7826Z" fill="url(#paint2_linear_0_1)" fill-opacity="0.68"/>
<path d="M194.85 153.894C189.269 152.591 184.059 152.405 178.85 152.033C171.221 151.661 164.709 151.289 159.872 147.939C154.662 144.404 150.569 137.518 152.429 131.005C154.476 123.19 162.29 117.049 171.035 115.746C182.385 114.071 194.478 117.235 202.851 123.934C207.688 127.656 214.758 126.725 218.48 122.073C222.201 117.235 221.27 110.164 216.619 106.442C203.409 96.207 185.175 91.3688 168.058 93.7879C150.383 96.3931 135.498 108.861 131.033 125.05C126.94 139.937 133.638 156.871 147.22 166.176C157.267 173.061 168.058 173.619 177.733 174.177C182.012 174.364 186.292 174.55 190.013 175.48C199.13 177.527 205.642 185.343 205.083 193.717C204.525 203.207 194.478 208.79 185.361 210.092C171.593 212.139 156.895 206.929 148.708 197.438C144.801 192.786 137.917 192.228 133.266 196.136C128.614 200.23 128.056 207.115 131.963 211.767C143.127 224.979 161.174 232.609 179.408 232.609C182.385 232.609 185.548 232.423 188.524 232.05C206.2 229.445 225.922 216.791 227.224 195.019C228.34 176.038 214.386 158.174 194.85 153.894Z" fill="#6C757D"/>
<defs>
<linearGradient id="paint0_linear_0_1" x1="158.197" y1="18.6087" x2="158.197" y2="372.174" gradientUnits="userSpaceOnUse">
<stop stop-color="#17A2B8"/>
<stop offset="1" stop-color="#19E2FE" stop-opacity="0.68"/>
</linearGradient>
<linearGradient id="paint1_linear_0_1" x1="158.197" y1="18.6087" x2="158.197" y2="372.174" gradientUnits="userSpaceOnUse">
<stop offset="0.235" stop-color="#3B82F6"/>
<stop offset="1" stop-color="#BFDBFE"/>
</linearGradient>
<linearGradient id="paint2_linear_0_1" x1="79.1241" y1="55.826" x2="79" y2="342" gradientUnits="userSpaceOnUse">
<stop offset="0.166" stop-color="#3B82F6"/>
<stop offset="1" stop-color="#BFDBFE"/>
</linearGradient>
</defs>
</svg>
